<svg xmlns="http://www.w3.org/2000/svg" width="13.701" height="11.866" viewBox="0 0 13.701 11.866">
  <g id="Grupo_492" data-name="Grupo 492" transform="translate(679.577 -6216.048)">
    <g id="Trazado_63" data-name="Trazado 63" transform="translate(-679 6216.548)" fill="#f9dd33">
      <path d="M 11.61070442199707 11.11560249328613 L 11.46636486053467 11.11560249328613 L 1.08014440536499 11.11560249328613 L 0.9358043670654297 11.11560249328613 L 0.8636344075202942 10.99060249328613 L 0.3894143998622894 10.16923236846924 L -0.2165056020021439 9.119752883911133 L -0.2886655926704407 8.994752883911133 L -0.2165056020021439 8.869752883911133 L 4.976604461669922 -0.1249973252415657 L 5.048774242401123 -0.2499973177909851 L 5.193114280700684 -0.2499973177909851 L 7.353394508361816 -0.2499973177909851 L 7.497734546661377 -0.2499973177909851 L 7.569904327392578 -0.1249973252415657 L 12.763014793396 8.869752883911133 L 12.83517456054688 8.994752883911133 L 12.763014793396 9.119752883911133 L 12.15709400177002 10.16923236846924 L 11.68287467956543 10.99060249328613 L 11.61070442199707 11.11560249328613 Z" stroke="none"/>
      <path d="M 5.193114280700684 2.86102294921875e-06 L 4.76837158203125e-06 8.994752883911133 C 0.4800643920898438 9.826262474060059 0.6000747680664062 10.03409290313721 1.080143928527832 10.86560249328613 L 11.46636390686035 10.86560249328613 C 11.94643402099609 10.03409290313721 12.06644439697266 9.826262474060059 12.54650402069092 8.994752883911133 L 7.353394508361816 2.86102294921875e-06 L 5.193114280700684 2.86102294921875e-06 M 4.904434204101562 -0.4999971389770508 L 7.642074584960938 -0.4999971389770508 L 13.123854637146 8.994752883911133 L 11.75504398345947 11.36560249328613 L 0.7914648056030273 11.36560249328613 L -0.5773458480834961 8.994752883911133 L 4.904434204101562 -0.4999971389770508 Z" stroke="none" fill="#000"/>
    </g>
    <path id="Trazado_64" data-name="Trazado 64" d="M88.835,54.423l1.183,1.154h.434l.45-4.536-.556-.627H88.974l-.556.627Z" transform="translate(-762.386 6169.003)" fill="#f201b7"/>
    <path id="Trazado_65" data-name="Trazado 65" d="M96.536,139.837h-.368l.035,1.53h1.523l.008-.333Z" transform="translate(-769.696 6084.668)" fill="#f201b7"/>
  </g>
</svg>
