<svg id="Icon_X" xmlns="http://www.w3.org/2000/svg" width="41.714" height="41.714" viewBox="0 0 41.714 41.714">
  <g id="Grupo_584" data-name="Grupo 584" transform="translate(0 0)">
    <path id="Trazado_5184" data-name="Trazado 5184" d="M0,30.8V10.911A10.943,10.943,0,0,1,10.911,0H30.8A10.943,10.943,0,0,1,41.714,10.911V30.8A10.943,10.943,0,0,1,30.8,41.714H10.911A10.943,10.943,0,0,1,0,30.8" fill="#1d1d1d" opacity="0"/>
    <path id="Trazado_5185" data-name="Trazado 5185" d="M26.081,26.344,19.433,16.159,26.8,7.116H25.116L23.674,8.878l-4.991,6.128L13.927,7.719l-.394-.6H7.69L9.115,9.3l6.322,9.689-7.77,9.539H9.353l6.836-8.388,5.08,7.784.394.6h5.843Zm-3.723.79-5.278-8.088-.75-1.151L10.2,8.51h2.633l4.953,7.59.752,1.151,6.449,9.883Z" transform="translate(3.27 3.035)" fill="#fff"/>
  </g>
</svg>
