<svg id="Icon_Facebook" xmlns="http://www.w3.org/2000/svg" width="41.714" height="41.714" viewBox="0 0 41.714 41.714">
  <g id="Grupo_586" data-name="Grupo 586">
    <path id="Trazado_5174" data-name="Trazado 5174" d="M0,30.8V10.911A10.943,10.943,0,0,1,10.911,0H30.8A10.943,10.943,0,0,1,41.714,10.911V30.8A10.943,10.943,0,0,1,30.8,41.714H24.117l-3.5-.853-3.017.853H10.911A10.943,10.943,0,0,1,0,30.8" fill="#1d1d1d" opacity="0"/>
  </g>
  <g id="Grupo_589" data-name="Grupo 589" transform="translate(9.125 7.822)">
    <path id="Exclusión_1" data-name="Exclusión 1" d="M-4483.361-3453.689h-3.921a6.4,6.4,0,0,1-6.4-6.4v-11.662a6.4,6.4,0,0,1,6.4-6.4h11.661a6.4,6.4,0,0,1,6.4,6.4v11.662a6.4,6.4,0,0,1-6.4,6.4h-3.919v-8.29h2.849l.542-3.536h-3.391v-2.294a1.762,1.762,0,0,1,1.993-1.909H-4476v-3.009a19.184,19.184,0,0,0-2.737-.239c-2.893,0-4.619,1.779-4.619,4.758v2.693h-3.1v3.536h3.1v8.29Z" transform="translate(4493.679 3478.146)" fill="#fff" stroke="rgba(0,0,0,0)" stroke-miterlimit="10" stroke-width="1"/>
  </g>
</svg>
