<svg id="Icon_Youtube" xmlns="http://www.w3.org/2000/svg" width="41.714" height="41.714" viewBox="0 0 41.714 41.714">
  <g id="Grupo_585" data-name="Grupo 585" transform="translate(0 0)">
    <path id="Trazado_5182" data-name="Trazado 5182" d="M0,30.8V10.911A10.943,10.943,0,0,1,10.911,0H30.8A10.943,10.943,0,0,1,41.714,10.911V30.8A10.943,10.943,0,0,1,30.8,41.714H10.911A10.943,10.943,0,0,1,0,30.8" fill="#1d1d1d" opacity="0"/>
    <path id="Trazado_5183" data-name="Trazado 5183" d="M29.273,13.993a5.009,5.009,0,0,0-5.008-5.009H11.457a5.009,5.009,0,0,0-5.008,5.009v5.96a5.009,5.009,0,0,0,5.008,5.009H24.265a5.009,5.009,0,0,0,5.008-5.009Zm-7.532,3.426L16,20.261c-.225.121-.99-.041-.99-.3V14.131c0-.26.772-.422,1-.294l5.5,2.991c.23.131.472.465.238.591" transform="translate(2.751 3.832)" fill="#fff"/>
  </g>
</svg>
