<svg id="Icon_instagram" xmlns="http://www.w3.org/2000/svg" width="41.714" height="41.714" viewBox="0 0 41.714 41.714">
  <g id="Grupo_587" data-name="Grupo 587" transform="translate(0 0)">
    <path id="Trazado_5176" data-name="Trazado 5176" d="M0,30.8V10.911A10.943,10.943,0,0,1,10.911,0H30.8A10.943,10.943,0,0,1,41.714,10.911V30.8A10.943,10.943,0,0,1,30.8,41.714H10.911A10.943,10.943,0,0,1,0,30.8" fill="#1d1d1d" opacity="0"/>
    <path id="Trazado_5177" data-name="Trazado 5177" d="M19.589,9.11a1.434,1.434,0,1,0,1.434,1.434A1.434,1.434,0,0,0,19.589,9.11" transform="translate(7.743 3.886)" fill="#fff"/>
    <path id="Trazado_5178" data-name="Trazado 5178" d="M16.492,10.4a6.023,6.023,0,1,0,6.023,6.023A6.03,6.03,0,0,0,16.492,10.4m0,9.881a3.857,3.857,0,1,1,3.857-3.857,3.862,3.862,0,0,1-3.857,3.857" transform="translate(4.465 4.435)" fill="#fff"/>
    <path id="Trazado_5179" data-name="Trazado 5179" d="M23.159,30.5H13.394A7.354,7.354,0,0,1,6.049,23.16V13.4A7.353,7.353,0,0,1,13.394,6.05h9.764A7.355,7.355,0,0,1,30.505,13.4V23.16A7.354,7.354,0,0,1,23.159,30.5M13.4,8.35A5.051,5.051,0,0,0,8.35,13.4V23.16A5.051,5.051,0,0,0,13.4,28.205H23.16a5.051,5.051,0,0,0,5.046-5.046V13.4A5.052,5.052,0,0,0,23.16,8.35Z" transform="translate(2.58 2.58)" fill="#fff"/>
  </g>
</svg>
