<svg id="Icon_Tiktok" xmlns="http://www.w3.org/2000/svg" width="41.714" height="41.714" viewBox="0 0 41.714 41.714">
  <g id="Grupo_583" data-name="Grupo 583" transform="translate(0 0)">
    <path id="Trazado_5180" data-name="Trazado 5180" d="M0,30.8V10.911A10.943,10.943,0,0,1,10.911,0H30.8A10.943,10.943,0,0,1,41.714,10.911V30.8A10.943,10.943,0,0,1,30.8,41.714H10.911A10.943,10.943,0,0,1,0,30.8" fill="#1d1d1d" opacity="0"/>
    <path id="Trazado_5181" data-name="Trazado 5181" d="M27.463,15.425c-.2.02-.4.029-.6.031A6.531,6.531,0,0,1,21.4,12.5V22.555a7.43,7.43,0,1,1-7.43-7.43c.155,0,.307.013.46.024V18.81a3.719,3.719,0,0,0-.46-.047,3.792,3.792,0,1,0,0,7.583A3.884,3.884,0,0,0,17.915,22.6L17.951,5.53h3.5a6.523,6.523,0,0,0,6.012,5.824v4.068" transform="translate(3.854 3.1)" fill="#fff"/>
  </g>
</svg>
