<svg id="Grupo_576" data-name="Grupo 576" xmlns="http://www.w3.org/2000/svg" width="32" height="32" viewBox="0 0 32 32">
  <g id="Grupo_587" data-name="Grupo 587" transform="translate(0 0)">
    <path id="Trazado_5176" data-name="Trazado 5176" d="M0,23.63V8.37A8.4,8.4,0,0,1,8.37,0H23.63A8.4,8.4,0,0,1,32,8.37V23.63A8.4,8.4,0,0,1,23.63,32H8.37A8.4,8.4,0,0,1,0,23.63" transform="translate(0 0)" fill="#1d1d1d"/>
    <path id="Trazado_5177" data-name="Trazado 5177" d="M19.255,9.11a1.1,1.1,0,1,0,1.1,1.1,1.1,1.1,0,0,0-1.1-1.1" transform="translate(1.712 0.859)" fill="#fff"/>
    <path id="Trazado_5178" data-name="Trazado 5178" d="M15.089,10.4a4.62,4.62,0,1,0,4.62,4.62,4.625,4.625,0,0,0-4.62-4.62m0,7.58a2.959,2.959,0,1,1,2.959-2.959,2.962,2.962,0,0,1-2.959,2.959" transform="translate(0.987 0.981)" fill="#fff"/>
    <path id="Trazado_5179" data-name="Trazado 5179" d="M19.174,24.81H11.684a5.641,5.641,0,0,1-5.635-5.635V11.685A5.641,5.641,0,0,1,11.684,6.05h7.491a5.642,5.642,0,0,1,5.636,5.635v7.491a5.641,5.641,0,0,1-5.636,5.635m-7.489-17a3.875,3.875,0,0,0-3.871,3.871v7.491a3.875,3.875,0,0,0,3.871,3.871h7.491a3.875,3.875,0,0,0,3.871-3.871V11.685a3.875,3.875,0,0,0-3.871-3.871Z" transform="translate(0.571 0.571)" fill="#fff"/>
  </g>
</svg>
