<svg id="Grupo_578" data-name="Grupo 578" xmlns="http://www.w3.org/2000/svg" width="32" height="32" viewBox="0 0 32 32">
  <g id="Grupo_583" data-name="Grupo 583" transform="translate(0 0)">
    <path id="Trazado_5180" data-name="Trazado 5180" d="M0,23.63V8.37A8.4,8.4,0,0,1,8.37,0H23.63A8.4,8.4,0,0,1,32,8.37V23.63A8.4,8.4,0,0,1,23.63,32H8.37A8.4,8.4,0,0,1,0,23.63" transform="translate(0 0)" fill="#1d1d1d"/>
    <path id="Trazado_5181" data-name="Trazado 5181" d="M22.591,13.121c-.153.015-.307.023-.461.024a5.01,5.01,0,0,1-4.19-2.264v7.71a5.7,5.7,0,1,1-5.7-5.7c.119,0,.236.01.353.018v2.808a2.853,2.853,0,0,0-.353-.036,2.909,2.909,0,1,0,0,5.817,2.98,2.98,0,0,0,3.026-2.873l.028-13.1H17.98A5,5,0,0,0,22.592,10v3.121" transform="translate(1.433 1.09)" fill="#fff"/>
  </g>
</svg>
