<svg id="Grupo_582" data-name="Grupo 582" xmlns="http://www.w3.org/2000/svg" width="32" height="32" viewBox="0 0 32 32">
  <g id="Grupo_584" data-name="Grupo 584" transform="translate(0 0)">
    <path id="Trazado_5184" data-name="Trazado 5184" d="M0,23.63V8.37A8.4,8.4,0,0,1,8.37,0H23.63A8.4,8.4,0,0,1,32,8.37V23.63A8.4,8.4,0,0,1,23.63,32H8.37A8.4,8.4,0,0,1,0,23.63" transform="translate(0 0)" fill="#1d1d1d"/>
    <path id="Trazado_5185" data-name="Trazado 5185" d="M21.792,21.866l-5.1-7.813,5.653-6.937H21.053L19.946,8.467l-3.829,4.7-3.648-5.59-.3-.463H7.685L8.778,8.791l4.85,7.433L7.667,23.542H8.96L14.2,17.107l3.9,5.972.3.463h4.482Zm-2.856.606-4.049-6.2-.576-.883-4.7-7.2h2.02l3.8,5.823.577.883,4.947,7.581Z" transform="translate(0.723 0.671)" fill="#fff"/>
  </g>
</svg>
