<svg id="Grupo_580" data-name="Grupo 580" xmlns="http://www.w3.org/2000/svg" width="32" height="32" viewBox="0 0 32 32">
  <g id="Grupo_585" data-name="Grupo 585" transform="translate(0 0)">
    <path id="Trazado_5182" data-name="Trazado 5182" d="M0,23.63V8.37A8.4,8.4,0,0,1,8.37,0H23.63A8.4,8.4,0,0,1,32,8.37V23.63A8.4,8.4,0,0,1,23.63,32H8.37A8.4,8.4,0,0,1,0,23.63" transform="translate(0 0)" fill="#1d1d1d"/>
    <path id="Trazado_5183" data-name="Trazado 5183" d="M23.958,12.826a3.842,3.842,0,0,0-3.842-3.842H10.291a3.842,3.842,0,0,0-3.842,3.842V17.4a3.842,3.842,0,0,0,3.842,3.842h9.825A3.842,3.842,0,0,0,23.958,17.4ZM18.18,15.455l-4.406,2.18c-.173.093-.759-.032-.759-.228V12.932c0-.2.592-.324.765-.225L18,15c.176.1.362.357.183.453" transform="translate(0.608 0.847)" fill="#fff"/>
  </g>
</svg>
